<?xml version="1.0" encoding="utf-8"?>
<!-- Generator: Adobe Illustrator 23.0.6, SVG Export Plug-In . SVG Version: 6.00 Build 0)  -->
<svg version="1.1" id="Layer_1" xmlns="http://www.w3.org/2000/svg" xmlns:xlink="http://www.w3.org/1999/xlink" x="0px" y="0px"
	 viewBox="0 0 248.87 250.11" style="enable-background:new 0 0 248.87 250.11;" xml:space="preserve">
<g>
	<path d="M236.96,170.23c0,12.25-0.06,24.51,0.03,36.76c0.03,4.32-0.71,7.9-6.01,7.91c-5.15,0.01-6.29-3.39-6.29-7.78
		c-0.03-22.46,0.41-44.94-0.35-67.39c-1.01-29.98-8.55-58.03-29.77-80.5C152.84,15.05,75.16,24.49,42.91,77.37
		c-13.66,22.39-18.51,46.99-18.46,72.86c0.03,18.84-0.02,37.67,0.02,56.51c0.01,3.85-0.15,7.55-5.07,8.11
		c-3.87,0.45-7.2-0.89-7.08-5.28c0.97-32.59-3.3-70.19,3.49-97.71C26.93,66.81,51.76,34.3,98.23,22.51
		c63.32-16.06,119.59,19.61,134.58,84.05C237.72,127.63,236.95,148.93,236.96,170.23z"/>
	<path d="M71.38,214.37c-0.15,10.73-6.24,16.73-16.98,16.99c-2.72,0.07-5.46,0.11-8.17-0.03c-9.11-0.48-15.45-6.48-15.54-15.62
		c-0.23-22.25-0.23-44.49,0-66.74c0.09-9.11,6.44-15.11,15.56-15.58c2.95-0.15,5.91-0.12,8.86-0.01
		c10.07,0.36,16.33,6.81,16.41,16.98c0.08,10.67,0.02,21.33,0.02,32C71.49,182.36,71.52,203.7,71.38,214.37z"/>
	<path d="M218.62,150.66c-0.03-10.58-6.27-16.99-16.75-17.31c-2.72-0.08-5.46-0.1-8.17,0.01c-9.54,0.43-15.81,6.41-15.89,15.97
		c-0.2,22.02-0.2,44.04,0,66.06c0.09,9.54,6.37,15.52,15.92,15.93c2.5,0.11,5,0.07,7.49,0.02c11.18-0.21,17.17-6.15,17.29-17.36
		c0.11-10.67,0.02-21.33,0.02-32.01L218.62,150.66z"/>
</g>
</svg>
