<svg id="Layer_1" data-name="Layer 1" xmlns="http://www.w3.org/2000/svg" viewBox="0 0 42.93 78.92"><defs><style>.cls-1{fill:#1d1d1f;}</style></defs><title>PT_ikonlar_SVG</title><path class="cls-1" d="M0,39.61c0-5.3-.17-10.6.09-15.88.1-2.05.61-4.58,1.91-6C5.63,13.88,7.11,9.41,7.44,4.27,7.65.91,8.1.21,11.43.1,18-.12,24.64.08,31.25.19c2,0,3,1.36,3.18,3.27s0,3.79.68,5.47a35.19,35.19,0,0,0,3.94,7.82c1.53,2.19,2.75,4.27,2.58,7-.07,1-.43,2.4,1.36,2.47a83.58,83.58,0,0,1-.3,9.24c0,.28-1.08,1.34-1.08,2.33,0,5.77.19,11.56-.1,17.32a13.11,13.11,0,0,1-2.16,6.37c-2.85,4.24-5.68,8.33-5.2,13.83a2.86,2.86,0,0,1-3,3.32q-10.26.14-20.53,0c-2,0-3.19-1.31-3.37-3.37-.09-1.12-.15-2.24-.16-3.37a12.35,12.35,0,0,0-4.43-10A7.89,7.89,0,0,1,0,55.49C0,50.2,0,44.9,0,39.61Zm39.77-.25c0-5.29,0-10.59,0-15.89q0-6.9-7-6.91H9.05c-4.87,0-7.17,2.34-7.17,7.25q0,15.65,0,31.3c0,4.72,2.37,7.18,7,7.19q12,0,24,0c4.53,0,6.87-2.43,6.89-7C39.79,50,39.77,44.66,39.77,39.36Z"/></svg>