<?xml version="1.0" encoding="utf-8"?>
<!-- Generator: Adobe Illustrator 23.0.6, SVG Export Plug-In . SVG Version: 6.00 Build 0)  -->
<svg version="1.1" id="Layer_1" xmlns="http://www.w3.org/2000/svg" xmlns:xlink="http://www.w3.org/1999/xlink" x="0px" y="0px"
	 viewBox="0 0 248.87 250.11" style="enable-background:new 0 0 248.87 250.11;" xml:space="preserve">
<g>
	<path d="M125.88,166.72c-0.28,0.16-0.54,0.35-0.76,0.59c-0.21,0.24-0.39,0.52-0.52,0.82c-0.13,0.28-0.2,0.58-0.2,0.89v0.17
		c0,0.02,0.02,0.04,0.04,0.05v-0.2c0-0.31,0.07-0.61,0.2-0.89c0.13-0.3,0.31-0.57,0.52-0.82c0.22-0.24,0.47-0.44,0.76-0.59
		c0.27-0.14,0.56-0.22,0.86-0.25c0-0.01,0-0.01,0-0.02C126.46,166.49,126.16,166.57,125.88,166.72z M128.14,174.34
		c-0.31-0.43-0.46-0.93-0.47-1.44v-0.15c-0.01,0.05-0.01,0.1-0.01,0.16c-0.01,0.51,0.14,1.02,0.42,1.45c0.28,0.44,0.69,0.79,1.17,1
		c-0.08,0.31-0.2,0.6-0.34,0.88c-0.15,0.28-0.29,0.55-0.44,0.78c-0.07,0.11-0.14,0.22-0.21,0.33c0.08-0.1,0.16-0.22,0.25-0.34
		c0.18-0.24,0.29-0.51,0.44-0.78c0.14-0.29,0.26-0.59,0.36-0.89C128.83,175.13,128.42,174.79,128.14,174.34z M127.96,169.73
		c-0.1-0.06-0.21-0.1-0.31-0.14c0.1,0.05,0.2,0.1,0.3,0.15c0.4,0.21,0.74,0.51,0.99,0.88c0-0.01,0.01-0.01,0.01-0.01
		C128.7,170.24,128.36,169.94,127.96,169.73z M128,177.66c-0.16,0.17-0.27,0.31-0.35,0.4c-0.16,0.13-0.32,0.25-0.51,0.35
		c0.01,0,0.03,0,0.04-0.01c0.18-0.1,0.35-0.21,0.51-0.35c0.08-0.09,0.2-0.22,0.35-0.4c0.07-0.08,0.14-0.18,0.2-0.28
		C128.16,177.47,128.08,177.57,128,177.66z M126.64,169.39c-0.04,0-0.08,0-0.13,0.01h0.12c0.11,0,0.23,0.01,0.34,0.02
		C126.86,169.4,126.75,169.39,126.64,169.39z M126.13,169.45c-0.11,0.03-0.23,0.06-0.34,0.1c0.11-0.03,0.22-0.06,0.33-0.09
		c0.08-0.02,0.17-0.03,0.26-0.05C126.3,169.41,126.22,169.43,126.13,169.45z M124.53,169.96c-0.3-0.04-0.59-0.13-0.86-0.27
		c-0.34-0.15-0.71-0.24-1.09-0.26c-0.3,0-0.61,0.05-0.89,0.16c0.28-0.1,0.58-0.15,0.88-0.15c0.38,0.02,0.75,0.11,1.09,0.26
		c0.27,0.14,0.56,0.23,0.86,0.27c0.1-0.01,0.21-0.04,0.3-0.08C124.72,169.92,124.63,169.95,124.53,169.96z"/>
	<path d="M230.64,30.52H18.23c-3.78,0.48-6.76,3.46-7.24,7.24v141.51c0.56,3.81,3.61,6.77,7.43,7.24h212.23
		c3.78-0.48,6.75-3.46,7.22-7.24V37.76C237.4,33.98,234.42,31,230.64,30.52z M128.24,177.37c-0.08,0.1-0.16,0.2-0.24,0.29
		c-0.16,0.17-0.27,0.31-0.35,0.4c-0.16,0.13-0.32,0.25-0.51,0.35c-0.07,0.03-0.14,0.06-0.21,0.08c-0.1,0.03-0.21,0.05-0.31,0.04
		c-0.14,0-0.29-0.03-0.43-0.07l-0.52-0.16c-0.18-0.06-0.35-0.11-0.53-0.17c-0.15-0.04-0.31-0.06-0.47-0.07
		c-0.08,0-0.17,0.01-0.25,0.02c-0.09,0.01-0.18,0.03-0.26,0.06c-0.19,0.05-0.37,0.11-0.56,0.17c-0.18,0.07-0.34,0.1-0.48,0.16
		c-0.01,0-0.03,0.01-0.04,0.01c-0.05,0.02-0.1,0.03-0.16,0.04c-0.07,0.01-0.15,0.02-0.23,0.03c-0.14,0-0.28-0.03-0.42-0.07
		c-0.15-0.07-0.3-0.15-0.43-0.26c-0.17-0.14-0.33-0.3-0.47-0.47c-0.42-0.49-0.77-1.04-1.05-1.63c-0.15-0.33-0.29-0.67-0.4-1.02
		c-0.1-0.35-0.17-0.7-0.22-1.05c-0.06-0.34-0.1-0.69-0.1-1.04c0-0.48,0.07-0.96,0.23-1.42l0.01-0.01c0.05-0.17,0.12-0.34,0.21-0.5
		c0.11-0.22,0.25-0.43,0.41-0.63c0.26-0.31,0.58-0.57,0.95-0.75c0.09-0.04,0.18-0.08,0.28-0.11c0.28-0.1,0.58-0.15,0.88-0.15
		c0.38,0.02,0.75,0.11,1.09,0.26c0.27,0.14,0.56,0.23,0.86,0.27c0.1-0.01,0.21-0.04,0.3-0.08c0.04-0.01,0.09-0.03,0.14-0.05
		c0.14-0.05,0.31-0.11,0.51-0.18c0.11-0.04,0.21-0.07,0.32-0.11c0.11-0.03,0.22-0.06,0.33-0.09c0.08-0.02,0.17-0.03,0.26-0.05
		c0.04,0,0.08,0,0.13-0.01h0.12c0.11,0,0.23,0.01,0.34,0.02c0.01,0,0.01,0,0.01,0c0.12,0.01,0.23,0.04,0.34,0.07
		c0.11,0.02,0.22,0.06,0.32,0.1c0.01,0,0.01,0,0.01,0c0.1,0.05,0.2,0.1,0.3,0.15c0.4,0.21,0.74,0.51,0.99,0.88
		c-0.41,0.23-0.75,0.57-0.98,0.97c-0.05,0.09-0.09,0.19-0.12,0.29c-0.03,0.07-0.05,0.15-0.07,0.22c-0.02,0.05-0.04,0.1-0.04,0.15
		c-0.03,0.11-0.04,0.23-0.05,0.34c-0.01,0.06-0.02,0.11-0.01,0.16c-0.01,0.05-0.01,0.1-0.01,0.16c-0.01,0.51,0.14,1.02,0.42,1.45
		c0.28,0.44,0.69,0.79,1.17,1c-0.08,0.31-0.2,0.6-0.34,0.88c-0.15,0.28-0.29,0.55-0.44,0.78c-0.07,0.11-0.14,0.22-0.21,0.33
		C128.26,177.35,128.24,177.36,128.24,177.37z M126.82,166.61v0.13c0,0.32-0.07,0.65-0.19,0.95c-0.12,0.3-0.29,0.58-0.5,0.82
		c-0.2,0.24-0.44,0.43-0.71,0.58c-0.25,0.14-0.53,0.21-0.81,0.21c-0.11,0-0.17,0-0.17-0.06v-0.2c0-0.31,0.07-0.61,0.2-0.89
		c0.13-0.3,0.31-0.57,0.52-0.82c0.22-0.24,0.47-0.44,0.76-0.59c0.27-0.14,0.56-0.22,0.86-0.25h0.04
		C126.83,166.53,126.83,166.57,126.82,166.61z M228.43,158.14H20.45V39.97h207.98V158.14z M158.17,216.81
		c-0.31-0.31-0.72-0.48-1.16-0.48l-0.33-0.02c-6.53,0.44-12.41-3.95-13.84-10.34l-3.71-17.11h-29.4l-3.68,17.11
		c-1.43,6.39-7.31,10.78-13.84,10.34l-0.33,0.02c-0.43,0-0.85,0.17-1.15,0.48c-0.31,0.31-0.48,0.72-0.48,1.15
		c0.01,0.71,0.47,1.32,1.15,1.53c0.06,0.03,0.13,0.06,0.2,0.08v0.02h65.7v-0.02c0.07-0.01,0.14-0.04,0.2-0.08
		c0.68-0.2,1.15-0.82,1.15-1.53C158.65,217.53,158.48,217.11,158.17,216.81z"/>
</g>
</svg>
