<?xml version="1.0" encoding="utf-8"?>
<!-- Generator: Adobe Illustrator 23.0.6, SVG Export Plug-In . SVG Version: 6.00 Build 0)  -->
<svg version="1.1" id="Layer_1" xmlns="http://www.w3.org/2000/svg" xmlns:xlink="http://www.w3.org/1999/xlink" x="0px" y="0px"
	 viewBox="0 0 248.87 250.11" style="enable-background:new 0 0 248.87 250.11;" xml:space="preserve">
<path d="M43.4,20.99v208.17c0,6.79,5.51,12.3,12.3,12.3h137.47c6.79,0,12.3-5.51,12.3-12.3l0,0V20.99c0-6.8-5.5-12.31-12.3-12.33
	H55.7C48.9,8.67,43.4,14.19,43.4,20.99z M124.42,14.57c2.55-0.02,4.63,2.04,4.64,4.58s-2.04,4.63-4.58,4.64
	c-2.55,0.02-4.63-2.04-4.64-4.58c0-0.02,0-0.04,0-0.06c-0.02-2.51,2.01-4.57,4.52-4.58C124.38,14.57,124.4,14.57,124.42,14.57z
	 M124.42,237.52c-3.51,0.02-6.37-2.82-6.39-6.33s2.82-6.37,6.33-6.39s6.37,2.82,6.39,6.33c0,0.01,0,0.02,0,0.03
	c0.02,3.49-2.8,6.34-6.3,6.36C124.44,237.52,124.43,237.52,124.42,237.52z M195.39,214.52c-0.02,3.39-2.77,6.12-6.15,6.12H59.6
	c-3.4,0.02-6.16-2.72-6.18-6.12l0,0V35.59c0.03-3.39,2.79-6.11,6.18-6.09h129.66c3.38-0.02,6.13,2.71,6.15,6.09l0,0L195.39,214.52z"
	/>
</svg>
