<?xml version="1.0" encoding="utf-8"?>
<!-- Generator: Adobe Illustrator 23.0.6, SVG Export Plug-In . SVG Version: 6.00 Build 0)  -->
<svg version="1.1" id="Layer_1" xmlns="http://www.w3.org/2000/svg" xmlns:xlink="http://www.w3.org/1999/xlink" x="0px" y="0px"
	 viewBox="0 0 248.87 250.11" style="enable-background:new 0 0 248.87 250.11;" xml:space="preserve">
<path d="M180.51,218.77V31.34c0.11-3.17-0.12-6.33-0.67-9.45c-0.62-3.11-2.09-5.99-4.24-8.31c-2.16-2.3-4.93-3.92-7.97-4.69
	c-3.05-0.68-6.16-0.98-9.28-0.87H91.59c-1.13,0-2.32,0-3.33,0.03c-1.67,0.02-3.34,0.16-5,0.42c-1.57,0.25-3.11,0.68-4.57,1.31
	c-1.62,0.7-3.12,1.66-4.43,2.84c-2.52,2.29-4.28,5.28-5.07,8.6c-0.48,2.07-0.74,4.18-0.77,6.31c-0.03,0.82-0.05,1.63-0.06,2.44
	c-0.01,1.26-0.01,2.51-0.01,3.77v185.04c-0.11,3.17,0.12,6.33,0.68,9.45c0.61,3.11,2.09,5.99,4.23,8.32
	c0.24,0.25,0.49,0.45,0.74,0.67c1,0.96,2.13,1.77,3.33,2.44c1.24,0.67,2.54,1.2,3.9,1.56c1.62,0.41,3.27,0.66,4.94,0.74
	c1.44,0.1,2.9,0.12,4.35,0.13h67.04c3.19,0.12,6.36-0.13,9.49-0.73c3.14-0.69,6.01-2.27,8.27-4.54c2.26-2.32,3.8-5.24,4.47-8.41
	C180.4,225.23,180.63,221.99,180.51,218.77z M116.15,10.87c0-0.36,0.29-0.64,0.64-0.64h15.05c0.36,0,0.64,0.29,0.64,0.64v0.1
	c0,0.37-0.29,0.65-0.64,0.65h-15.05c-0.36,0-0.64-0.29-0.64-0.65C116.15,10.97,116.15,10.87,116.15,10.87z M108.76,14.1
	c0.4-0.64,1.12-1.02,1.87-0.97c1,0.1,1.77,0.94,1.77,1.95s-0.77,1.85-1.77,1.95c-0.75,0.05-1.47-0.33-1.87-0.98
	C108.43,15.45,108.43,14.72,108.76,14.1z M175.04,227.32c-0.46,2.29-1.56,4.39-3.19,6.06c-1.61,1.62-3.67,2.74-5.91,3.22
	c-2.76,0.51-5.57,0.72-8.38,0.6H97.79c-1.99,0-5.27,0.01-7.23,0c-1.62,0-3.09-0.04-4.46-0.14c-1.22-0.08-2.41-0.27-3.59-0.56
	c-2.17-0.54-4.14-1.69-5.67-3.3c-1.55-1.69-2.6-3.77-3.04-6.02c-0.47-2.78-0.66-5.6-0.56-8.42V33.73c0-1.24,0-2.53,0.03-3.77
	c0-0.82,0.02-1.64,0.05-2.43c0.03-1.73,0.24-3.45,0.61-5.13c0.55-2.36,1.8-4.52,3.6-6.16c0.92-0.82,1.97-1.49,3.11-1.99
	c1.1-0.46,2.25-0.78,3.42-0.97c1.43-0.22,2.88-0.34,4.33-0.35c0.89-0.03,1.93-0.03,2.94-0.03h10.87c0.3-0.01,0.58,0,0.88,0.05
	c0.29,0.04,0.55,0.17,0.77,0.37c0.21,0.2,0.35,0.47,0.39,0.76c0.06,0.35,0.1,1.51,0.22,2.21c0.12,0.64,0.34,1.27,0.66,1.84
	c0.51,0.91,1.27,1.66,2.17,2.19c0.7,0.4,1.47,0.64,2.29,0.74c0.8,0.08,1.62,0.11,2.43,0.08h24.87c0.82,0.03,1.63,0,2.44-0.08
	c0.8-0.1,1.57-0.35,2.28-0.74c0.91-0.52,1.65-1.28,2.18-2.19c0.32-0.57,0.54-1.2,0.65-1.84c0.09-0.65,0.14-1.32,0.16-1.98
	c-0.01-0.39,0.16-0.74,0.46-0.99c0.21-0.2,0.47-0.33,0.76-0.37c0.29-0.05,0.58-0.06,0.88-0.05h11.64c2.7-0.11,5.41,0.13,8.05,0.71
	c2.17,0.53,4.13,1.68,5.67,3.3c1.54,1.68,2.59,3.76,3.03,6.02c0.48,2.78,0.67,5.6,0.56,8.42v187.52
	C175.75,221.71,175.55,224.53,175.04,227.32z"/>
</svg>
